# xmcd
#
# Track frame offsets:
#	150
#	18233
#	35829
#	53932
#	66720
#	86088
#	103165
#	119049
#	135107
#	157517
#	170332
#	185722
#	202071
#
# Disc length: 2989 seconds
#
# Revision: 0
# Processed by: cddbd v1.5.2PL0 Copyright (c) Steve Scherf et al.
# Submitted via: audiograbber 1.83.01
#
DISCID=ba0bab0d
DTITLE=Medicine Head - Only The Roses
DYEAR=2005
DGENRE=Rock
TTITLE0=It's Natural
TTITLE1=Wishin and Wishin
TTITLE2=Too Much Love
TTITLE3=Give It Away
TTITLE4=Mother Love
TTITLE5=I'm Your Man
TTITLE6=Shake Me
TTITLE7=Me And Suzie Hit The Floor
TTITLE8=Can't Live A Lie
TTITLE9=Just Wanna Make Love To You
TTITLE10=Mama Come Out
TTITLE11=It's Got To Be Alright
TTITLE12=River of Tears
EXTD=
EXTT0=
EXTT1=
EXTT2=
EXTT3=
EXTT4=
EXTT5=
EXTT6=
EXTT7=
EXTT8=
EXTT9=
EXTT10=
EXTT11=
EXTT12=
PLAYORDER=
